<?xml version="1.0" standalone="no"?>
<!DOCTYPE svg PUBLIC "-//W3C//DTD SVG 20010904//EN"
 "http://www.w3.org/TR/2001/REC-SVG-20010904/DTD/svg10.dtd">
<svg version="1.0" xmlns="http://www.w3.org/2000/svg"
 width="88.000000pt" height="88.000000pt" viewBox="0 0 88.000000 88.000000"
 preserveAspectRatio="xMidYMid meet">
<metadata>
Created by potrace 1.14, written by Peter Selinger 2001-2017
</metadata>
<g transform="translate(0.000000,88.000000) scale(0.100000,-0.100000)"
fill="#000000" stroke="none">
<path d="M298 856 c-112 -40 -189 -105 -242 -206 -19 -36 -38 -79 -41 -95 -12
-53 -15 -185 -5 -185 5 0 7 -7 4 -15 -7 -17 29 -117 58 -159 62 -90 173 -164
279 -187 104 -22 248 5 333 63 85 58 165 173 181 259 l7 36 -146 0 -145 0 -26
-53 c-26 -53 -94 -124 -118 -124 -8 0 -32 18 -55 41 -79 77 -105 183 -76 304
12 51 100 155 131 155 24 0 93 -72 118 -125 l26 -52 142 1 142 1 -1 31 c-2 48
-54 143 -111 201 -35 36 -77 65 -129 90 -69 33 -88 37 -168 40 -75 2 -103 -2
-158 -21z m77 -656 c3 -6 -1 -7 -9 -4 -18 7 -21 14 -7 14 6 0 13 -4 16 -10z"/>
</g>
</svg>
